<?xml version="1.0" encoding="utf-8"?>
<!-- Generator: Adobe Illustrator 19.0.0, SVG Export Plug-In . SVG Version: 6.00 Build 0)  -->
<svg version="1.1" id="Layer_1" xmlns="http://www.w3.org/2000/svg" xmlns:xlink="http://www.w3.org/1999/xlink" x="0px" y="0px"
	 viewBox="0 0 574.6 91" style="enable-background:new 0 0 574.6 91;" xml:space="preserve">
<path fill="#FFFFFF" id="XMLID_162_" d="M76,47.6H53.8c-2.2,0-3.5,0.7-3.5,2.2c0,2,2.5,2.4,4.6,3.2c4.7,1.8,5.1,4.1,5.1,13.5v11.7
	c0,2-0.6,3.2-2.7,4.1c-3.7,1.6-7.3,1.8-10.6,1.8c-20,0-33.1-18.9-33.1-41.2c0-19.3,11-36.4,30.1-36.4c19.1,0,19.7,18,24.9,18
	c3.3,0,3.3-4.1,3.3-6.8c0-6.9-0.5-11.2-5.6-13.8C61.5,1.4,53.7,0,45.9,0C19.1,0,0,19.9,0,45.9C0,70.1,16.9,91,44.9,91
	c12,0,21.4-4.3,25.2-7.3c1.7-1.4,2.2-2.2,2.2-4.8V66.5c0-9,0.4-11.5,3.2-13.3c2-1.4,3.9-1.6,3.9-3.5C79.5,48.4,78.3,47.6,76,47.6
	 M132.2,18.3c0.2-0.6,0.4-0.9,0.6-0.9c0.4,0,0.4,0.1,0.7,1l13.1,34.2c0.3,0.6,0.3,0.8,0.3,0.9c0,0.4-0.3,0.6-0.7,0.6h-27.9
	c-0.6,0-0.9-0.4-0.9-0.7c0-0.1,0-0.4,0.3-0.9L132.2,18.3z M173.2,82.8c-2.1-2.1-3.5-4.8-5.8-10.9L140.5,1.7
	c-0.4-0.9-0.9-1.2-1.9-1.2h-3.9c-0.9,0-1.4,0.3-1.8,1.2l-30.2,68c-1.2,3-3.1,6.7-4.9,9.4c-4.1,6.2-7.9,5.7-7.9,8.4
	c0,1.5,1.4,2.1,3.7,2.1h17.2c2.1,0,3.6-0.7,3.6-2.3c0-3.1-5.7-1.5-5.7-8.3c0-3.7,1.9-9.1,5.3-17.4c0.4-0.7,0.9-1.1,1.7-1.1h32.3
	c1.4,0,2,0.4,2.3,1.4l4.2,10.9c1.6,4.3,2.2,6.7,2.2,8.3c0,4.5-5.2,3.6-5.2,6.4c0,1.4,1.1,2.2,3.1,2.2H175c2.6,0,3.5-0.9,3.5-2.2
	C178.5,85.3,175.9,85.4,173.2,82.8 M262.1,64.3c0-13.4-10.6-20-22.5-21.5c-1-0.1-1.2-0.4-1.2-0.7c0-0.4,0.1-0.6,0.9-0.7
	c11.1-2,19.2-9.3,19.2-20.2c0-5.1-2-10.4-6.9-14.1c-7-5.3-16.3-5.6-27.2-5.6h-27.2c-2.1,0-3.3,0.9-3.3,2.2c0,2,2,2.2,3.9,3.5
	c3,1.8,3.1,4.2,3.1,11.5v49.7c0,5.9-0.2,9.7-1.2,12.1c-2,4.7-6,4.1-6,6.8c0,1.7,1.5,2.3,3.6,2.3h25.4
	C240.8,89.6,262.1,84.6,262.1,64.3 M213.4,47.5c0-0.7,0.5-1.5,1.5-1.5h8.9c14.6,0,24.8,4.7,24.8,17.8c0,17-14.7,19.1-24.3,19.1h-3.4
	c-3.5,0-5.2-0.1-6.3-1.5c-0.9-1.1-1.1-2.7-1.1-12.6V47.5z M215.4,39.5c-1.2,0-2-0.6-2-1.9V10.1c0-1.6,0.6-2.4,2.2-2.4h7.4
	c9.6,0,22,1.1,22,15.4c0,12.2-10.5,16.3-22.7,16.3H215.4z M311.7,41.2h-7.5c-1.4,0-2-0.7-2-1.7V10c0-1.5,0.7-2.1,2.5-2.1h7.5
	c12.6,0,21.2,2.6,21.2,15.9C333.4,37.3,322.3,41.2,311.7,41.2 M355.6,84.4c-2.8-1.7-4.7-4.9-10.9-19.6c-5.6-13.3-9.1-18.6-17.9-19.9
	c-0.7-0.1-1-0.4-1-0.7c0-0.4,0.3-0.6,1-0.8c7.4-1.1,14.4-4.6,18.1-12c1.2-2.5,2-5.8,2-9.3c0-5.2-1.6-10.7-6.5-14.9
	c-6-5.2-15.8-5.9-24.4-5.9c-5.9,0-13,0.1-19,0.1h-11c-2.1,0-3.3,1-3.3,2.2c0,2,2.1,2.4,3.7,3.3c3.4,2,3.4,4.3,3.4,12.5V68
	c0,8.6-0.7,11.4-1.7,13.1c-2.1,3.5-6,4-6,6.2c0,1.7,1.5,2.3,3.3,2.3h21.1c1.8,0,3.4-0.6,3.4-2.3c0-2.8-4.1-2.2-6-6.2
	c-0.9-1.7-1.7-4.4-1.7-13.1V49.4c0-1,0.4-1.5,1.4-1.6c0.9-0.1,2.8-0.2,4.9-0.2c2.4,0,5.1,0.1,6.7,0.5c7.6,1.6,11.8,7.3,15.8,16.7
	c3.3,7.9,6.4,16.9,8.6,20.5c1.8,3,3.6,4.5,7.5,4.5h8.3c1.6,0,3.1-0.6,3.1-2.2C358.5,85.8,356.9,85.3,355.6,84.4 M395.4,68.4v-48
	c0-8.9,0.2-11.4,3.2-13.3c2-1.3,3.8-1.5,3.8-3.4c0-1.2-1.2-2.1-3.3-2.1h-19.8c-2.2,0-3.5,0.9-3.5,2.1c0,2,2,2.1,3.9,3.4
	c2.8,2,3.2,4.4,3.2,13.3v48c0,5.3-0.3,9.6-1.2,11.8c-2.2,5.1-6.5,4.3-6.5,7c0,1.7,1.6,2.3,3.8,2.3h20.2c2.2,0,3.8-0.6,3.8-2.3
	c0-2.7-4.5-2.1-6.6-7C395.6,77.9,395.4,73.9,395.4,68.4 M488.9,65.4c-4.9,0.1-5.9,9.8-13.9,14.4c-4,2.4-10,3.3-18.4,3.3
	c-4.2,0-7.4-0.4-9-1.6c-1.9-1.5-2-4.3-2-11.5V48.6c0-1,0.5-1.6,1.6-1.6c3.3,0,8.8,0,12.6,0.1c4.6,0.1,8.6,0.5,11.7,0.5
	c4.3,0,5.7-0.6,6.1-3.8c0.1-1,0.4-1.6,0.4-2.6c0-2.2-2-2.5-4.4-2.5c-3.2,0-8.4,0.7-13,1c-4.9,0.3-9.1,0.3-12.1,0.3
	c-2.2,0-2.8-0.5-2.8-2.7V10.4c0-1.7,0.6-2.6,2.7-2.6h4.8c10,0,17.5,0.3,21.7,3c4.3,2.9,5.3,6.7,6.8,10.2c1.1,2.8,2.2,3.6,3.6,3.6
	c2.6,0,3.6-1.3,3.6-3.6c0-3.6-0.4-13.2-0.6-16.9c-0.1-3-2.6-3.5-4.9-3.5c-3.6,0-10.1,0.9-21.7,0.9h-32.1c-2.1,0-3.3,1-3.3,2.2
	c0,2,2.1,2.4,3.7,3.3c3.3,2,3.5,4.2,3.5,11.7v49.6c0,5.7-0.4,9.7-1.4,12c-2.1,4.9-6.4,4.2-6.4,6.9c0,1.7,1.6,2.3,3.8,2.3h32.1
	c12,0,17.4,1,20.7,1c8.2,0,7.3-10.6,9.3-16.9c0.5-1.7,1-3.6,1-4.8C492.4,66.8,490.8,65.4,488.9,65.4 M571.1,65.4
	c-7.2,0-4.3,17.8-29.2,17.8c-3.1,0-6.7-0.1-8-1.2c-1.9-1.5-2.1-4.1-2.1-10V20.4c0-8.9,0.2-11.6,3.2-13.3c2-1.2,3.9-1.5,3.9-3.4
	c0-1.2-1.2-2.1-3.5-2.1h-19.7c-2.2,0-3.5,0.9-3.5,2.1c0,2,2,2.2,3.9,3.4c2.8,1.7,3.2,4.4,3.2,13.3v48c0,5.4-0.3,9.6-1.2,11.8
	c-2.2,4.9-6.5,4.3-6.5,7c0,1.7,1.6,2.3,3.8,2.3h28.1c12.5,0,17,1,21.1,1c7.9,0,6.7-9.8,8.9-17c0.5-1.7,1-3.6,1-4.8
	C574.6,66.5,573,65.4,571.1,65.4"/>
</svg>
